<?xml version="1.0" standalone="no"?>
<!DOCTYPE svg PUBLIC "-//W3C//DTD SVG 20010904//EN"
 "http://www.w3.org/TR/2001/REC-SVG-20010904/DTD/svg10.dtd">
<svg version="1.0" xmlns="http://www.w3.org/2000/svg"
 width="512.000000pt" height="512.000000pt" viewBox="0 0 512.000000 512.000000"
 preserveAspectRatio="xMidYMid meet">

<g transform="translate(0.000000,512.000000) scale(0.100000,-0.100000)"
fill="#000000" stroke="none">
<path d="M1715 4770 l-680 -5 -65 -31 c-83 -39 -145 -101 -184 -184 l-31 -65
-3 -1519 c-2 -1367 -1 -1525 14 -1575 32 -112 105 -194 220 -248 l59 -28 1495
0 1495 0 66 31 c93 44 142 93 187 182 l37 76 3 1505 c2 1100 0 1522 -8 1566
-15 78 -41 127 -102 191 -71 76 -126 97 -263 101 -214 6 -1569 8 -2240 3z
m529 -430 c75 -29 159 -111 204 -200 18 -36 44 -112 58 -170 14 -58 30 -109
35 -115 15 -15 62 47 116 153 80 159 160 212 320 212 96 0 98 -3 59 -86 -46
-99 -121 -155 -246 -184 -77 -18 -106 -35 -140 -82 -63 -87 -76 -223 -34 -348
l19 -55 380 -5 c413 -5 410 -5 445 -63 18 -29 20 -52 20 -227 0 -220 -7 -248
-71 -282 -32 -17 -79 -18 -879 -18 -656 0 -851 3 -870 13 -13 7 -35 28 -47 46
-22 33 -23 42 -23 238 0 224 4 243 60 277 25 14 73 16 385 16 l356 0 14 33
c19 47 52 182 60 248 15 126 -36 197 -177 242 -168 54 -287 185 -313 346 l-7
44 108 -5 c80 -4 125 -11 168 -28z m1198 -1588 l33 -32 3 -220 3 -219 -35 -38
-34 -38 -870 -3 -869 -2 -28 22 c-49 38 -55 69 -55 280 0 176 2 196 20 226 11
18 34 39 50 46 23 9 223 12 890 12 l860 -1 32 -33z m-17 -659 c48 -36 55 -66
55 -260 0 -159 -2 -181 -20 -210 -36 -60 -52 -60 -125 1 -232 198 -522 190
-753 -18 l-40 -37 -70 53 c-82 62 -182 104 -286 120 -138 21 -305 -27 -436
-126 -74 -56 -98 -55 -138 4 -23 34 -23 39 -20 227 l3 192 30 31 c16 17 43 35
60 39 17 5 401 8 873 6 790 -4 844 -5 867 -22z"/>
<path d="M1797 3304 c-11 -12 -8 -41 6 -53 19 -15 50 9 45 35 -3 19 -38 31
-51 18z"/>
<path d="M1922 3298 c-16 -16 -15 -23 3 -42 28 -27 69 10 44 40 -14 17 -31 18
-47 2z"/>
<path d="M2057 3304 c-13 -14 -7 -43 12 -53 23 -13 45 8 39 36 -3 18 -38 30
-51 17z"/>
<path d="M2194 3296 c-10 -26 4 -48 28 -44 17 2 23 10 23 28 0 18 -6 26 -23
28 -13 2 -25 -3 -28 -12z"/>
<path d="M2327 3304 c-13 -14 -7 -43 12 -53 23 -13 45 8 39 36 -3 18 -38 30
-51 17z"/>
<path d="M2464 3296 c-10 -26 4 -48 28 -44 17 2 23 10 23 28 0 18 -6 26 -23
28 -13 2 -25 -3 -28 -12z"/>
<path d="M3194 3250 c-49 -20 -66 -77 -39 -129 25 -49 90 -57 130 -16 38 37
35 95 -6 129 -32 27 -50 30 -85 16z"/>
<path d="M1860 3166 c-27 -33 18 -72 48 -42 13 13 14 20 6 34 -15 23 -38 26
-54 8z"/>
<path d="M2000 3165 c-19 -23 -8 -50 20 -50 16 0 26 6 28 18 4 18 -14 47 -28
47 -4 0 -13 -7 -20 -15z"/>
<path d="M2131 3161 c-15 -27 9 -56 37 -47 24 8 29 35 10 54 -17 17 -36 15
-47 -7z"/>
<path d="M2272 3171 c-8 -4 -12 -19 -10 -32 2 -18 9 -24 28 -24 28 0 39 27 20
50 -14 17 -20 18 -38 6z"/>
<path d="M2412 3168 c-15 -15 -16 -45 -2 -53 17 -10 50 5 50 24 0 16 -18 41
-30 41 -3 0 -11 -5 -18 -12z"/>
<path d="M1797 3034 c-13 -13 -7 -55 8 -60 21 -9 47 15 43 40 -3 21 -37 34
-51 20z"/>
<path d="M1921 3021 c-13 -24 9 -57 33 -48 23 9 31 34 16 52 -17 20 -37 19
-49 -4z"/>
<path d="M2060 3025 c-15 -18 -7 -43 16 -52 24 -9 46 24 33 48 -12 23 -32 24
-49 4z"/>
<path d="M2203 3033 c-18 -7 -16 -52 2 -59 19 -8 45 13 45 36 0 14 -23 34 -33
29 -1 0 -8 -3 -14 -6z"/>
<path d="M2329 3024 c-9 -11 -10 -20 -3 -32 15 -23 29 -25 48 -7 12 12 13 21
6 36 -13 23 -33 25 -51 3z"/>
<path d="M2467 3034 c-13 -13 -7 -52 9 -58 22 -9 46 13 42 38 -3 21 -37 34
-51 20z"/>
<path d="M1932 2651 c-8 -4 -12 -19 -10 -32 2 -18 9 -24 28 -24 28 0 39 27 20
50 -14 17 -20 18 -38 6z"/>
<path d="M2060 2645 c-24 -29 15 -70 45 -45 14 12 10 39 -9 52 -16 11 -22 10
-36 -7z"/>
<path d="M2200 2645 c-18 -22 -3 -57 23 -53 37 5 33 67 -4 68 -4 0 -12 -7 -19
-15z"/>
<path d="M2330 2645 c-17 -21 -8 -50 17 -53 30 -4 49 31 27 52 -19 20 -28 20
-44 1z"/>
<path d="M1794 2636 c-10 -26 4 -48 28 -44 17 2 23 10 23 28 0 18 -6 26 -23
28 -13 2 -25 -3 -28 -12z"/>
<path d="M2467 2644 c-10 -11 -9 -42 3 -49 20 -12 51 6 48 28 -3 22 -36 35
-51 21z"/>
<path d="M3165 2565 c-53 -53 -15 -149 58 -149 52 0 87 35 87 86 0 52 -35 88
-85 88 -25 0 -44 -8 -60 -25z"/>
<path d="M1862 2508 c-18 -18 -15 -36 9 -49 29 -15 59 12 43 39 -14 22 -36 26
-52 10z"/>
<path d="M1997 2513 c-13 -13 -7 -51 9 -57 20 -8 44 11 44 34 0 23 -37 39 -53
23z"/>
<path d="M2137 2514 c-13 -13 -7 -55 9 -61 24 -9 51 23 38 45 -12 19 -36 27
-47 16z"/>
<path d="M2273 2513 c-19 -7 -16 -50 4 -57 24 -10 51 20 37 41 -12 19 -23 24
-41 16z"/>
<path d="M2407 2514 c-13 -14 -7 -52 10 -58 25 -10 51 20 37 42 -12 19 -36 27
-47 16z"/>
<path d="M1806 2377 c-26 -19 -17 -52 14 -52 18 0 26 6 28 21 4 30 -20 47 -42
31z"/>
<path d="M2334 2376 c-20 -15 -14 -43 12 -53 20 -8 47 19 39 39 -9 23 -30 29
-51 14z"/>
<path d="M1916 2364 c-7 -19 10 -44 29 -44 19 0 36 25 29 44 -3 9 -16 16 -29
16 -13 0 -26 -7 -29 -16z"/>
<path d="M2054 2366 c-10 -26 4 -48 28 -44 17 2 23 10 23 28 0 18 -6 26 -23
28 -13 2 -25 -3 -28 -12z"/>
<path d="M2194 2366 c-10 -26 4 -48 28 -44 17 2 23 10 23 28 0 18 -6 26 -23
28 -13 2 -25 -3 -28 -12z"/>
<path d="M2464 2366 c-10 -26 4 -48 28 -44 17 2 23 10 23 28 0 18 -6 26 -23
28 -13 2 -25 -3 -28 -12z"/>
<path d="M0 1171 l0 -91 35 0 c34 0 35 1 35 40 0 42 -27 107 -54 129 -14 12
-16 4 -16 -78z"/>
<path d="M0 990 c0 -51 1 -52 21 -39 22 15 56 65 49 72 -3 3 -20 8 -37 12
l-33 7 0 -52z"/>
</g>
</svg>
