<?xml version="1.0" encoding="utf-8"?>
<svg width="227" height="227" viewBox="0 0 227 227" fill="none" xmlns="http://www.w3.org/2000/svg">
  <g>
    <g>
      <g>
        <g transform="matrix(1 0 0 -1 0 185.141)">
          <path d="M42.7282 162.042L12.5808 161.821C12.5808 161.821 9.69905 160.446 9.69905 160.446C6.01929 158.717 3.27056 155.968 1.54152 152.289C1.54152 152.289 0.167152 149.407 0.167152 149.407C0.167152 149.407 0.0341492 82.063 0.0341492 82.063C-0.0545197 21.4579 -0.0101852 14.453 0.654831 12.2363C2.07353 7.27084 5.30994 3.63542 10.4084 1.24136C10.4084 1.24136 13.0241 0 13.0241 0L79.3041 0L145.584 0C145.584 0 148.51 1.37437 148.51 1.37437C152.633 3.32508 154.806 5.49747 156.801 9.44323C156.801 9.44323 158.441 12.8126 158.441 12.8126C158.441 12.8126 158.574 79.5359 158.574 79.5359C158.663 128.304 158.574 147.013 158.219 148.964C157.554 152.422 156.402 154.594 153.697 157.431C150.549 160.801 148.111 161.732 142.037 161.909C132.55 162.175 72.4766 162.264 42.7282 162.042C42.7282 162.042 42.7282 162.042 42.7282 162.042ZM66.1811 142.978C69.5062 141.693 73.2303 138.057 75.2253 134.112C76.0233 132.516 77.176 129.146 77.7967 126.575C78.4174 124.003 79.1267 121.742 79.3484 121.476C80.0134 120.811 82.0971 123.56 84.4912 128.259C88.0379 135.309 91.5847 137.658 98.6782 137.658C102.934 137.658 103.023 137.525 101.294 133.846C99.2545 129.456 95.9295 126.974 90.3877 125.688C86.9739 124.89 85.6882 124.136 84.1808 122.053C81.3878 118.196 80.8114 112.166 82.6735 106.624C82.6735 106.624 83.5158 104.186 83.5158 104.186C83.5158 104.186 100.363 103.964 100.363 103.964C118.673 103.743 118.54 103.743 120.092 101.171C120.89 99.8854 120.978 98.8657 120.978 91.1072C120.978 81.3536 120.668 80.1123 117.831 78.6049C116.412 77.8512 114.328 77.8069 78.8607 77.8069C49.7774 77.8069 41.1321 77.9399 40.2898 78.3832C39.7134 78.6936 38.7381 79.6246 38.2061 80.4226C37.2307 81.8857 37.1864 82.2847 37.1864 90.9742C37.1864 100.905 37.3637 101.747 39.8465 103.255C40.9548 103.876 43.0829 103.964 56.9152 103.964C56.9152 103.964 72.6982 103.964 72.6982 103.964C72.6982 103.964 73.3189 105.427 73.3189 105.427C74.1613 107.511 75.6243 113.496 75.979 116.422C76.644 122.008 74.3829 125.156 68.1318 127.151C60.6836 129.545 55.4078 135.353 54.2551 142.491C54.2551 142.491 53.9448 144.441 53.9448 144.441C53.9448 144.441 58.7329 144.22 58.7329 144.22C62.2797 144.042 64.2747 143.732 66.1811 142.978C66.1811 142.978 66.1811 142.978 66.1811 142.978ZM119.294 72.5754L120.757 71.1567L120.89 61.4031L121.023 51.6939L119.471 50.0092L117.964 48.3245L79.3927 48.1915L40.8661 48.1028C40.8661 48.1028 39.6248 49.0782 39.6248 49.0782C37.4524 50.7629 37.1864 52.1372 37.1864 61.4918C37.1864 69.2947 37.2751 70.1814 38.0731 71.5114C38.5608 72.3094 39.5804 73.2404 40.2898 73.5508C41.3095 73.9498 50.1764 74.0828 79.7474 74.0828C79.7474 74.0828 117.875 74.0384 117.875 74.0384L119.294 72.5754L119.294 72.5754ZM118.54 43.359C120.668 41.763 120.978 40.433 120.978 31.8321C120.978 24.7829 120.89 23.8076 120.092 22.5219C118.496 19.8618 117.786 19.8618 114.55 22.5662C104.264 31.3444 91.4073 30.9897 81.1661 21.7682C81.1661 21.7682 79.3927 20.1278 79.3927 20.1278C79.3927 20.1278 76.2893 22.4775 76.2893 22.4775C72.6539 25.2263 68.2205 27.0883 63.6097 27.7977C57.4915 28.7287 50.0877 26.6006 44.2799 22.2115C40.9991 19.7288 39.9351 19.7731 38.1617 22.3889C37.142 23.8962 37.142 24.1179 37.275 32.4528C37.275 32.4528 37.408 40.965 37.408 40.965C37.408 40.965 38.7381 42.3394 38.7381 42.3394C39.4474 43.093 40.6445 43.8911 41.3981 44.0684C42.1518 44.2901 59.1762 44.4231 80.1021 44.3344C115.126 44.1571 117.52 44.1127 118.54 43.359C118.54 43.359 118.54 43.359 118.54 43.359Z" fill="#000000" transform="translate(33.305 7.581)" />
          <path d="M0.296005 2.5552C-0.191673 2.02319 -0.05867 0.73748 0.562012 0.205467C1.40437 -0.459549 2.77873 0.604477 2.55706 1.75718C2.42406 2.59953 0.872353 3.13155 0.296005 2.5552C0.296005 2.5552 0.296005 2.5552 0.296005 2.5552Z" fill="#000000" transform="translate(79.373 102.074)" />
          <path d="M0.500717 2.27721C-0.208633 1.56786 -0.164299 1.25752 0.63372 0.415169C1.87508 -0.78186 3.6928 0.858513 2.58443 2.18855C1.96375 2.94223 1.21007 2.98656 0.500717 2.27721C0.500717 2.27721 0.500717 2.27721 0.500717 2.27721Z" fill="#000000" transform="translate(84.71 102.086)" />
          <path d="M0.307373 2.52451C-0.268974 1.90382 -0.00296783 0.618118 0.839394 0.174774C1.85909 -0.401573 2.83444 0.529449 2.56844 1.77082C2.43543 2.56884 0.883728 3.10085 0.307373 2.52451C0.307373 2.52451 0.307373 2.52451 0.307373 2.52451Z" fill="#000000" transform="translate(90.889 102.105)" />
          <path d="M0.144737 1.97164C-0.298607 0.818954 0.322075 -0.156403 1.38609 0.0209351C2.13978 0.109604 2.40578 0.464279 2.40578 1.2623C2.40578 2.06031 2.13978 2.41499 1.38609 2.50365C0.809753 2.59232 0.27774 2.37065 0.144737 1.97164C0.144737 1.97164 0.144737 1.97164 0.144737 1.97164Z" fill="#000000" transform="translate(97.125 102.303)" />
          <path d="M0.307373 2.52451C-0.268974 1.90382 -0.00296783 0.618118 0.839394 0.174774C1.85909 -0.401573 2.83444 0.529449 2.56844 1.77082C2.43543 2.56884 0.883728 3.10085 0.307373 2.52451C0.307373 2.52451 0.307373 2.52451 0.307373 2.52451Z" fill="#000000" transform="translate(102.859 102.105)" />
          <path d="M0.144737 1.97164C-0.298607 0.818954 0.322075 -0.156403 1.38609 0.0209351C2.13978 0.109604 2.40578 0.464279 2.40578 1.2623C2.40578 2.06031 2.13978 2.41499 1.38609 2.50365C0.809753 2.59232 0.27774 2.37065 0.144737 1.97164C0.144737 1.97164 0.144737 1.97164 0.144737 1.97164Z" fill="#000000" transform="translate(109.095 102.303)" />
          <path d="M2.29637 7.5966C0.123978 6.70991 -0.629715 4.18285 0.567322 1.87746C1.67567 -0.29493 4.55742 -0.649605 6.3308 1.16811C8.0155 2.80848 7.88251 5.37988 6.06479 6.88725C4.64609 8.08427 3.84807 8.21728 2.29637 7.5966C2.29637 7.5966 2.29637 7.5966 2.29637 7.5966Z" fill="#000000" transform="translate(139.308 94.639)" />
          <path d="M0.367752 2.33797C-0.829269 0.874931 1.16577 -0.854111 2.4958 0.475922C3.07214 1.05228 3.11648 1.36262 2.7618 1.9833C2.09679 3.00299 1.0771 3.13599 0.367752 2.33797C0.367752 2.33797 0.367752 2.33797 0.367752 2.33797Z" fill="#000000" transform="translate(82.094 96.173)" />
          <path d="M0.420616 2.21672C-0.421738 1.19703 0.0659409 0 1.3073 0C2.01665 0 2.45999 0.266006 2.54866 0.798019C2.726 1.59604 1.92798 2.88174 1.3073 2.88174C1.12996 2.88174 0.730957 2.5714 0.420616 2.21672C0.420616 2.21672 0.420616 2.21672 0.420616 2.21672Z" fill="#000000" transform="translate(88.248 96.25)" />
          <path d="M0.204605 2.15785C-0.460411 0.960823 0.603615 -0.324875 1.84497 0.0741348C2.909 0.42881 3.13067 1.62584 2.28831 2.46819C1.53463 3.22187 0.692284 3.13321 0.204605 2.15785C0.204605 2.15785 0.204605 2.15785 0.204605 2.15785Z" fill="#000000" transform="translate(94.272 96.132)" />
          <path d="M0.465942 2.48272C0.111267 2.30539 -0.0660706 1.64037 0.0225983 1.06403C0.111267 0.266006 0.421608 0 1.26396 0C2.50533 0 2.993 1.19703 2.15065 2.21672C1.52997 2.9704 1.26396 3.01473 0.465942 2.48272C0.465942 2.48272 0.465942 2.48272 0.465942 2.48272Z" fill="#000000" transform="translate(100.262 96.25)" />
          <path d="M0.527756 2.49132C-0.13726 1.8263 -0.181595 0.496262 0.439087 0.141586C1.19277 -0.301758 2.65581 0.363258 2.65581 1.20561C2.65581 1.91497 1.85779 3.02333 1.32578 3.02333C1.19277 3.02333 0.838097 2.80166 0.527756 2.49132C0.527756 2.49132 0.527756 2.49132 0.527756 2.49132Z" fill="#000000" transform="translate(106.407 96.109)" />
          <path d="M0.316452 2.7457C-0.259888 2.16935 0.00611877 0.307297 0.671127 0.0856247C1.60215 -0.313385 2.75484 0.750641 2.57751 1.85901C2.4445 2.79003 0.937134 3.36638 0.316452 2.7457C0.316452 2.7457 0.316452 2.7457 0.316452 2.7457Z" fill="#000000" transform="translate(79.352 89.913)" />
          <path d="M0.171425 2.19528C-0.404922 1.13125 0.570442 -0.331795 1.63447 0.067215C2.65416 0.466225 3.00883 1.57459 2.34382 2.37262C1.59013 3.25931 0.703445 3.21497 0.171425 2.19528C0.171425 2.19528 0.171425 2.19528 0.171425 2.19528Z" fill="#000000" transform="translate(84.995 89.887)" />
          <path d="M0.338768 2.37262C-0.326256 1.57459 0.0284271 0.466225 1.04812 0.067215C2.11214 -0.331795 3.0875 1.13125 2.51115 2.19528C1.97914 3.21497 1.09245 3.25931 0.338768 2.37262C0.338768 2.37262 0.338768 2.37262 0.338768 2.37262Z" fill="#000000" transform="translate(90.99 89.887)" />
          <path d="M0.556023 2.6926C-0.241997 2.38226 -0.153328 0.387215 0.644691 0.0768738C1.48705 -0.277802 2.63975 0.653221 2.63975 1.67291C2.63975 2.29359 1.62005 3.18028 1.1767 2.95861C1.13237 2.95861 0.822029 2.82561 0.556023 2.6926C0.556023 2.6926 0.556023 2.6926 0.556023 2.6926Z" fill="#000000" transform="translate(97.113 89.922)" />
          <path d="M0.336662 2.26373C-0.0623474 1.77605 -0.106682 1.37704 0.203659 0.845024C0.868675 -0.174667 1.48936 -0.263336 2.33171 0.534683C2.86372 1.0667 2.90806 1.46571 2.59772 2.13072C2.02137 3.15041 1.13468 3.23908 0.336662 2.26373C0.336662 2.26373 0.336662 2.26373 0.336662 2.26373Z" fill="#000000" transform="translate(102.918 89.952)" />
          <path d="M0.314064 2.66251C-0.262283 2.08616 0.00372314 0.357124 0.713074 0.0911179C1.68843 -0.307892 2.75246 0.667458 2.57512 1.77582C2.44212 2.70684 0.934746 3.28319 0.314064 2.66251C0.314064 2.66251 0.314064 2.66251 0.314064 2.66251Z" fill="#000000" transform="translate(109.059 89.997)" />
          <path d="M0.465942 2.48272C0.111267 2.30539 -0.0660706 1.64037 0.0225983 1.06403C0.111267 0.266006 0.421608 0 1.26396 0C2.50533 0 2.993 1.19703 2.15065 2.21672C1.52997 2.9704 1.26396 3.01473 0.465942 2.48272C0.465942 2.48272 0.465942 2.48272 0.465942 2.48272Z" fill="#000000" transform="translate(85.188 73.196)" />
          <path d="M0.330734 2.33858C-0.733292 1.05288 0.99575 -0.764832 2.32579 0.343529C2.94647 0.875542 2.76913 2.07257 1.92678 2.64892C1.21742 3.1366 0.951416 3.09226 0.330734 2.33858C0.330734 2.33858 0.330734 2.33858 0.330734 2.33858Z" fill="#000000" transform="translate(90.998 73.074)" />
          <path d="M0.349579 2.36369C-0.448441 1.38834 0.216576 -0.163361 1.36926 0.0139771C3.00964 0.235649 2.8323 2.98438 1.19193 3.02871C1.0146 3.02871 0.65992 2.71837 0.349579 2.36369C0.349579 2.36369 0.349579 2.36369 0.349579 2.36369Z" fill="#000000" transform="translate(97.186 73.049)" />
          <path d="M0.386765 2.36369C-0.36692 1.43267 0.0320892 0.14698 1.14045 0.0139771C2.47048 -0.163361 3.31284 1.38834 2.33748 2.31936C1.49512 3.20605 1.09612 3.20605 0.386765 2.36369C0.386765 2.36369 0.386765 2.36369 0.386765 2.36369Z" fill="#000000" transform="translate(102.912 73.049)" />
          <path d="M0.144745 1.97166C-0.298599 0.818954 0.322083 -0.156403 1.38611 0.0209351C2.13979 0.109604 2.4058 0.464279 2.4058 1.26231C2.4058 2.06033 2.13979 2.415 1.38611 2.50367C0.809761 2.59234 0.277748 2.37067 0.144745 1.97166C0.144745 1.97166 0.144745 1.97166 0.144745 1.97166Z" fill="#000000" transform="translate(79.391 73.042)" />
          <path d="M0.302277 2.34267C-0.141068 1.855 -0.0967331 0.480629 0.43528 0.170288C1.32197 -0.361725 2.69633 0.436295 2.56333 1.41165C2.43033 2.38701 0.967293 2.96336 0.302277 2.34267C0.302277 2.34267 0.302277 2.34267 0.302277 2.34267Z" fill="#000000" transform="translate(109.071 73.026)" />
          <path d="M1.09782 6.60582C-1.25191 4.2561 0.4328 0 3.66922 0C5.97461 0 7.52632 1.5517 7.52632 3.81275C7.52632 6.11814 5.97461 7.71418 3.75789 7.71418C2.64952 7.71418 1.80717 7.3595 1.09782 6.60582C1.09782 6.60582 1.09782 6.60582 1.09782 6.60582Z" fill="#000000" transform="translate(139.221 65.26)" />
          <path d="M0.513016 2.36285C-0.285011 1.56483 -0.152008 0.766823 0.912025 0.190475C2.19772 -0.474533 3.52776 0.722488 2.81841 1.91951C2.19772 2.89487 1.22237 3.0722 0.513016 2.36285C0.513016 2.36285 0.513016 2.36285 0.513016 2.36285Z" fill="#000000" transform="translate(82.038 66.976)" />
          <path d="M0.314064 2.60955C-0.262283 2.0332 0.00372314 0.348495 0.713074 0.082489C1.59976 -0.272186 2.66379 0.570168 2.66379 1.58986C2.66379 2.60955 1.02341 3.3189 0.314064 2.60955C0.314064 2.60955 0.314064 2.60955 0.314064 2.60955Z" fill="#000000" transform="translate(88.222 66.951)" />
          <path d="M0.314064 2.77344C-0.262283 2.19709 0.00372314 0.335045 0.713074 0.0690308C1.77709 -0.329979 2.97411 1.08873 2.39777 2.06409C1.86576 2.90644 0.801743 3.26112 0.314064 2.77344C0.314064 2.77344 0.314064 2.77344 0.314064 2.77344Z" fill="#000000" transform="translate(94.429 66.832)" />
          <path d="M0.564926 2.61501C-0.277428 2.30466 -0.144424 0.398285 0.742264 0.087944C1.80629 -0.3554 3.00332 0.974632 2.38264 1.90565C1.85062 2.74801 1.36295 2.96968 0.564926 2.61501C0.564926 2.61501 0.564926 2.61501 0.564926 2.61501Z" fill="#000000" transform="translate(100.207 66.946)" />
          <path d="M0.31176 2.65923C-0.264587 2.03855 0.00141907 0.353844 0.755104 0.0878372C1.86346 -0.355507 3.01616 0.974525 2.39548 1.94988C1.86346 2.79224 0.799438 3.14691 0.31176 2.65923C0.31176 2.65923 0.31176 2.65923 0.31176 2.65923Z" fill="#000000" transform="translate(106.401 66.946)" />
          <path d="M0.675308 2.30539C-0.477386 1.46304 -0.0783768 0 1.29599 0C2.09401 0 2.44868 0.266006 2.53735 0.931023C2.71469 2.26105 1.65067 3.01474 0.675308 2.30539C0.675308 2.30539 0.675308 2.30539 0.675308 2.30539Z" fill="#000000" transform="translate(79.393 61.226)" />
          <path d="M0.527794 2.41364C-0.358894 1.74862 -0.0928879 0.507259 1.05981 0.0639153C1.9465 -0.29076 3.14353 0.906269 2.78886 1.79295C2.38984 2.81264 1.45882 3.07865 0.527794 2.41364C0.527794 2.41364 0.527794 2.41364 0.527794 2.41364Z" fill="#000000" transform="translate(102.949 61.073)" />
          <path d="M0.0712662 1.95071C-0.239075 1.10836 0.51461 0 1.35696 0C2.19932 0 2.953 1.10836 2.64266 1.95071C2.50966 2.34972 1.93331 2.66006 1.35696 2.66006C0.780617 2.66006 0.204269 2.34972 0.0712662 1.95071C0.0712662 1.95071 0.0712662 1.95071 0.0712662 1.95071Z" fill="#000000" transform="translate(84.873 61.004)" />
          <path d="M0.144737 1.97165C-0.298607 0.818954 0.322075 -0.156406 1.38609 0.0209351C2.13978 0.109604 2.40578 0.464279 2.40578 1.2623C2.40578 2.06032 2.13978 2.415 1.38609 2.50367C0.809753 2.59233 0.27774 2.37066 0.144737 1.97165C0.144737 1.97165 0.144737 1.97165 0.144737 1.97165Z" fill="#000000" transform="translate(90.918 61.072)" />
          <path d="M0.144737 1.97165C-0.298607 0.818954 0.322075 -0.156406 1.38609 0.0209351C2.13978 0.109604 2.40578 0.464279 2.40578 1.2623C2.40578 2.06032 2.13978 2.415 1.38609 2.50367C0.809753 2.59233 0.27774 2.37066 0.144737 1.97165C0.144737 1.97165 0.144737 1.97165 0.144737 1.97165Z" fill="#000000" transform="translate(97.125 61.072)" />
          <path d="M0.144737 1.97165C-0.298607 0.818954 0.322075 -0.156406 1.38609 0.0209351C2.13978 0.109604 2.40578 0.464279 2.40578 1.2623C2.40578 2.06032 2.13978 2.415 1.38609 2.50367C0.809753 2.59233 0.27774 2.37066 0.144737 1.97165C0.144737 1.97165 0.144737 1.97165 0.144737 1.97165Z" fill="#000000" transform="translate(109.095 61.072)" />
          <path d="M0 4.03443L0 0C0 0 1.5517 0 1.5517 0C3.05907 0 3.10341 0.0443344 3.10341 1.77338C3.10341 3.63542 1.90638 6.51716 0.70935 7.49252C0.0886688 8.02453 0 7.66985 0 4.03443C0 4.03443 0 4.03443 0 4.03443Z" fill="#000000" transform="translate(0 6.03)" />
          <path d="M0 2.03953C0 -0.221529 0.0443344 -0.265863 0.931022 0.310484C1.90638 0.9755 3.41375 3.19222 3.10341 3.50256C2.9704 3.63557 2.21672 3.85724 1.46304 4.03457C1.46304 4.03457 0 4.34492 0 4.34492L0 2.03953C0 2.03953 0 2.03953 0 2.03953Z" fill="#000000" />
        </g>
      </g>
    </g>
  </g>
</svg>